<svg width="30" height="30" viewBox="0 0 30 30" fill="none" xmlns="http://www.w3.org/2000/svg">
<path d="M17.1429 2.14286C17.1429 0.959598 18.1004 0 19.2857 0H27.7969C28.1451 0 28.4263 0.0575893 28.6741 0.162723C28.8683 0.266518 29.1629 0.419866 29.3705 0.622768C29.3705 0.626116 29.3705 0.629464 29.3772 0.632143C29.7924 1.04866 29.9397 1.59241 30 2.13616C30 2.13884 30 2.14085 30 2.14286V10.7143C30 11.8996 29.0424 12.8571 27.8571 12.8571C26.6719 12.8571 25.7143 11.8996 25.7143 10.7143V7.3192L14.3705 18.6562C13.5335 19.4933 12.1808 19.4933 11.3437 18.6562C10.5067 17.8192 10.5067 16.4665 11.3437 15.6295L22.6808 4.28571H19.2857C18.1004 4.28571 17.1429 3.32612 17.1429 2.14286ZM0 6.42857C0 4.06138 1.91853 2.14286 4.28571 2.14286H10.7143C11.8996 2.14286 12.8571 3.10246 12.8571 4.28571C12.8571 5.47098 11.8996 6.42857 10.7143 6.42857H4.28571V25.7143H23.5714V19.2857C23.5714 18.1004 24.529 17.1429 25.7143 17.1429C26.8996 17.1429 27.8571 18.1004 27.8571 19.2857V25.7143C27.8571 28.0781 25.9353 30 23.5714 30H4.28571C1.91853 30 0 28.0781 0 25.7143V6.42857Z" fill="#C4D4E3"/>
</svg>
