<svg width="23" height="30" viewBox="0 0 23 30" fill="none" xmlns="http://www.w3.org/2000/svg">
<path d="M19.6875 0C21.2402 0 22.5 1.25918 22.5 2.8125V27.1875C22.5 28.7402 21.2402 30 19.6875 30H14.0625V25.3125C14.0625 23.7598 12.8027 22.5 11.25 22.5C9.69727 22.5 8.4375 23.7598 8.4375 25.3125V30H2.8125C1.25918 30 0 28.7402 0 27.1875V2.8125C0 1.25918 1.25918 0 2.8125 0H19.6875ZM3.75 15.9375C3.75 16.4531 4.16953 16.875 4.6875 16.875H6.5625C7.07813 16.875 7.5 16.4531 7.5 15.9375V14.0625C7.5 13.5469 7.07813 13.125 6.5625 13.125H4.6875C4.16953 13.125 3.75 13.5469 3.75 14.0625V15.9375ZM10.3125 13.125C9.79687 13.125 9.375 13.5469 9.375 14.0625V15.9375C9.375 16.4531 9.79687 16.875 10.3125 16.875H12.1875C12.7031 16.875 13.125 16.4531 13.125 15.9375V14.0625C13.125 13.5469 12.7031 13.125 12.1875 13.125H10.3125ZM15 15.9375C15 16.4531 15.4219 16.875 15.9375 16.875H17.8125C18.3281 16.875 18.75 16.4531 18.75 15.9375V14.0625C18.75 13.5469 18.3281 13.125 17.8125 13.125H15.9375C15.4219 13.125 15 13.5469 15 14.0625V15.9375ZM4.6875 5.625C4.16953 5.625 3.75 6.04687 3.75 6.5625V8.4375C3.75 8.95313 4.16953 9.375 4.6875 9.375H6.5625C7.07813 9.375 7.5 8.95313 7.5 8.4375V6.5625C7.5 6.04687 7.07813 5.625 6.5625 5.625H4.6875ZM9.375 8.4375C9.375 8.95313 9.79687 9.375 10.3125 9.375H12.1875C12.7031 9.375 13.125 8.95313 13.125 8.4375V6.5625C13.125 6.04687 12.7031 5.625 12.1875 5.625H10.3125C9.79687 5.625 9.375 6.04687 9.375 6.5625V8.4375ZM15.9375 5.625C15.4219 5.625 15 6.04687 15 6.5625V8.4375C15 8.95313 15.4219 9.375 15.9375 9.375H17.8125C18.3281 9.375 18.75 8.95313 18.75 8.4375V6.5625C18.75 6.04687 18.3281 5.625 17.8125 5.625H15.9375Z" fill="#C4D4E3"/>
</svg>
